<?xml version="1.0" encoding="UTF-8" standalone="no"?>
<!DOCTYPE svg PUBLIC "-//W3C//DTD SVG 1.1//EN"
 "http://www.w3.org/Graphics/SVG/1.1/DTD/svg11.dtd">
<!-- Generated by graphviz version 2.47.3 (20210619.1520)
 -->
<!-- Title: HipparchiaGoDBHelper Pages: 1 -->
<svg width="100%" height="100%" xmlns="http://www.w3.org/2000/svg" xmlns:xlink="http://www.w3.org/1999/xlink">
<script type="text/ecmascript"><![CDATA[
/**
 *  SVGPan library 1.2.2
 * ======================
 *
 * Given an unique existing element with id "viewport" (or when missing, the
 * first g-element), including the library into any SVG adds the following
 * capabilities:
 *
 *  - Mouse panning
 *  - Mouse zooming (using the wheel)
 *  - Object dragging
 *
 * You can configure the behaviour of the pan/zoom/drag with the variables
 * listed in the CONFIGURATION section of this file.
 *
 * Known issues:
 *
 *  - Zooming (while panning) on Safari has still some issues
 *
 * Releases:
 *
 * 1.2.2, Tue Aug 30 17:21:56 CEST 2011, Andrea Leofreddi
 *	- Fixed viewBox on root tag (#7)
 *	- Improved zoom speed (#2)
 *
 * 1.2.1, Mon Jul  4 00:33:18 CEST 2011, Andrea Leofreddi
 *	- Fixed a regression with mouse wheel (now working on Firefox 5)
 *	- Working with viewBox attribute (#4)
 *	- Added "use strict;" and fixed resulting warnings (#5)
 *	- Added configuration variables, dragging is disabled by default (#3)
 *
 * 1.2, Sat Mar 20 08:42:50 GMT 2010, Zeng Xiaohui
 *	Fixed a bug with browser mouse handler interaction
 *
 * 1.1, Wed Feb  3 17:39:33 GMT 2010, Zeng Xiaohui
 *	Updated the zoom code to support the mouse wheel on Safari/Chrome
 *
 * 1.0, Andrea Leofreddi
 *	First release
 *
 * This code is licensed under the following BSD license:
 *
 * Copyright 2009-2017 Andrea Leofreddi <a.leofreddi@vleo.net>. All rights reserved.
 *
 * Redistribution and use in source and binary forms, with or without modification, are
 * permitted provided that the following conditions are met:
 *
 *    1. Redistributions of source code must retain the above copyright
 *       notice, this list of conditions and the following disclaimer.
 *    2. Redistributions in binary form must reproduce the above copyright
 *       notice, this list of conditions and the following disclaimer in the
 *       documentation and/or other materials provided with the distribution.
 *    3. Neither the name of the copyright holder nor the names of its
 *       contributors may be used to endorse or promote products derived from
 *       this software without specific prior written permission.
 *
 * THIS SOFTWARE IS PROVIDED BY COPYRIGHT HOLDERS AND CONTRIBUTORS ''AS IS'' AND ANY EXPRESS
 * OR IMPLIED WARRANTIES, INCLUDING, BUT NOT LIMITED TO, THE IMPLIED WARRANTIES OF MERCHANTABILITY
 * AND FITNESS FOR A PARTICULAR PURPOSE ARE DISCLAIMED. IN NO EVENT SHALL COPYRIGHT HOLDERS OR
 * CONTRIBUTORS BE LIABLE FOR ANY DIRECT, INDIRECT, INCIDENTAL, SPECIAL, EXEMPLARY, OR
 * CONSEQUENTIAL DAMAGES (INCLUDING, BUT NOT LIMITED TO, PROCUREMENT OF SUBSTITUTE GOODS OR
 * SERVICES; LOSS OF USE, DATA, OR PROFITS; OR BUSINESS INTERRUPTION) HOWEVER CAUSED AND ON
 * ANY THEORY OF LIABILITY, WHETHER IN CONTRACT, STRICT LIABILITY, OR TORT (INCLUDING
 * NEGLIGENCE OR OTHERWISE) ARISING IN ANY WAY OUT OF THE USE OF THIS SOFTWARE, EVEN IF
 * ADVISED OF THE POSSIBILITY OF SUCH DAMAGE.
 *
 * The views and conclusions contained in the software and documentation are those of the
 * authors and should not be interpreted as representing official policies, either expressed
 * or implied, of Andrea Leofreddi.
 */

"use strict";

/// CONFIGURATION
/// ====>

var enablePan = 1; // 1 or 0: enable or disable panning (default enabled)
var enableZoom = 1; // 1 or 0: enable or disable zooming (default enabled)
var enableDrag = 0; // 1 or 0: enable or disable dragging (default disabled)
var zoomScale = 0.2; // Zoom sensitivity

/// <====
/// END OF CONFIGURATION

var root = document.documentElement;

var state = 'none', svgRoot = null, stateTarget, stateOrigin, stateTf;

setupHandlers(root);

/**
 * Register handlers
 */
function setupHandlers(root){
	setAttributes(root, {
		"onmouseup" : "handleMouseUp(evt)",
		"onmousedown" : "handleMouseDown(evt)",
		"onmousemove" : "handleMouseMove(evt)",
		//"onmouseout" : "handleMouseUp(evt)", // Decomment this to stop the pan functionality when dragging out of the SVG element
	});

	if(navigator.userAgent.toLowerCase().indexOf('webkit') >= 0)
		window.addEventListener('mousewheel', handleMouseWheel, false); // Chrome/Safari
	else
		window.addEventListener('DOMMouseScroll', handleMouseWheel, false); // Others
}

/**
 * Retrieves the root element for SVG manipulation. The element is then cached into the svgRoot global variable.
 */
function getRoot(root) {
	if(svgRoot == null) {
		var r = root.getElementById("viewport") ? root.getElementById("viewport") : root.documentElement, t = r;

		while(t != root) {
			if(t.getAttribute("viewBox")) {
				setCTM(r, t.getCTM());

				t.removeAttribute("viewBox");
			}

			t = t.parentNode;
		}

		svgRoot = r;
	}

	return svgRoot;
}

/**
 * Instance an SVGPoint object with given event coordinates.
 */
function getEventPoint(evt) {
	var p = root.createSVGPoint();

	p.x = evt.clientX;
	p.y = evt.clientY;

	return p;
}

/**
 * Sets the current transform matrix of an element.
 */
function setCTM(element, matrix) {
	var s = "matrix(" + matrix.a + "," + matrix.b + "," + matrix.c + "," + matrix.d + "," + matrix.e + "," + matrix.f + ")";

	element.setAttribute("transform", s);
}

/**
 * Dumps a matrix to a string (useful for debug).
 */
function dumpMatrix(matrix) {
	var s = "[ " + matrix.a + ", " + matrix.c + ", " + matrix.e + "\n  " + matrix.b + ", " + matrix.d + ", " + matrix.f + "\n  0, 0, 1 ]";

	return s;
}

/**
 * Sets attributes of an element.
 */
function setAttributes(element, attributes){
	for (var i in attributes)
		element.setAttributeNS(null, i, attributes[i]);
}

/**
 * Handle mouse wheel event.
 */
function handleMouseWheel(evt) {
	if(!enableZoom)
		return;

	if(evt.preventDefault)
		evt.preventDefault();

	evt.returnValue = false;

	var svgDoc = evt.target.ownerDocument;

	var delta;

	if(evt.wheelDelta)
		delta = evt.wheelDelta / 360; // Chrome/Safari
	else
		delta = evt.detail / -9; // Mozilla

	var z = Math.pow(1 + zoomScale, delta);

	var g = getRoot(svgDoc);
	
	var p = getEventPoint(evt);

	p = p.matrixTransform(g.getCTM().inverse());

	// Compute new scale matrix in current mouse position
	var k = root.createSVGMatrix().translate(p.x, p.y).scale(z).translate(-p.x, -p.y);

        setCTM(g, g.getCTM().multiply(k));

	if(typeof(stateTf) == "undefined")
		stateTf = g.getCTM().inverse();

	stateTf = stateTf.multiply(k.inverse());
}

/**
 * Handle mouse move event.
 */
function handleMouseMove(evt) {
	if(evt.preventDefault)
		evt.preventDefault();

	evt.returnValue = false;

	var svgDoc = evt.target.ownerDocument;

	var g = getRoot(svgDoc);

	if(state == 'pan' && enablePan) {
		// Pan mode
		var p = getEventPoint(evt).matrixTransform(stateTf);

		setCTM(g, stateTf.inverse().translate(p.x - stateOrigin.x, p.y - stateOrigin.y));
	} else if(state == 'drag' && enableDrag) {
		// Drag mode
		var p = getEventPoint(evt).matrixTransform(g.getCTM().inverse());

		setCTM(stateTarget, root.createSVGMatrix().translate(p.x - stateOrigin.x, p.y - stateOrigin.y).multiply(g.getCTM().inverse()).multiply(stateTarget.getCTM()));

		stateOrigin = p;
	}
}

/**
 * Handle click event.
 */
function handleMouseDown(evt) {
	if(evt.preventDefault)
		evt.preventDefault();

	evt.returnValue = false;

	var svgDoc = evt.target.ownerDocument;

	var g = getRoot(svgDoc);

	if(
		evt.target.tagName == "svg"
		|| !enableDrag // Pan anyway when drag is disabled and the user clicked on an element
	) {
		// Pan mode
		state = 'pan';

		stateTf = g.getCTM().inverse();

		stateOrigin = getEventPoint(evt).matrixTransform(stateTf);
	} else {
		// Drag mode
		state = 'drag';

		stateTarget = evt.target;

		stateTf = g.getCTM().inverse();

		stateOrigin = getEventPoint(evt).matrixTransform(stateTf);
	}
}

/**
 * Handle mouse button release event.
 */
function handleMouseUp(evt) {
	if(evt.preventDefault)
		evt.preventDefault();

	evt.returnValue = false;

	var svgDoc = evt.target.ownerDocument;

	if(state == 'pan' || state == 'drag') {
		// Quit pan mode
		state = '';
	}
}
]]></script><g id="viewport" transform="scale(0.5,0.5) translate(0,0)"><g id="graph0" class="graph" transform="scale(1 1) rotate(0) translate(4 1047)">
<title>HipparchiaGoDBHelper</title>
<polygon fill="white" stroke="transparent" points="-4,4 -4,-1047 841,-1047 841,4 -4,4"/>
<g id="clust1" class="cluster">
<title>cluster_L</title>
<polygon fill="none" stroke="black" points="8,-902 8,-1035 496,-1035 496,-902 8,-902"/>
</g>
<!-- File: HipparchiaGoDBHelper -->
<g id="node1" class="node">
<title>File: HipparchiaGoDBHelper</title>
<g id="a_node1"><a xlink:title="HipparchiaGoDBHelper">
<polygon fill="#f8f8f8" stroke="black" points="488,-1027 16,-1027 16,-910 488,-910 488,-1027"/>
<text text-anchor="start" x="24" y="-1010.2" font-family="Times,serif" font-size="16.00">File: HipparchiaGoDBHelper</text>
<text text-anchor="start" x="24" y="-992.2" font-family="Times,serif" font-size="16.00">Type: inuse_space</text>
<text text-anchor="start" x="24" y="-974.2" font-family="Times,serif" font-size="16.00">Time: Jul 2, 2021 at 1:03pm (EDT)</text>
<text text-anchor="start" x="24" y="-956.2" font-family="Times,serif" font-size="16.00">Showing nodes accounting for 19321.91kB, 100% of 19321.91kB total</text>
<text text-anchor="start" x="24" y="-919.2" font-family="Times,serif" font-size="16.00">See https://git.io/JfYMW for how to read the graph</text>
</a>
</g>
</g>
<!-- N1 -->
<g id="node1" class="node">
<title>N1</title>
<g id="a_node1"><a xlink:title="main.HipparchiaBagger (19321.91kB)">
<polygon fill="#edd5d5" stroke="#b20000" points="636,-772 472,-772 472,-692 636,-692 636,-772"/>
<text text-anchor="middle" x="554" y="-755.2" font-family="Times,serif" font-size="16.00">main</text>
<text text-anchor="middle" x="554" y="-737.2" font-family="Times,serif" font-size="16.00">HipparchiaBagger</text>
<text text-anchor="middle" x="554" y="-719.2" font-family="Times,serif" font-size="16.00">2345.25kB (12.14%)</text>
<text text-anchor="middle" x="554" y="-701.2" font-family="Times,serif" font-size="16.00">of 19321.91kB (100%)</text>
</a>
</g>
</g>
<!-- NN1_0 -->
<g id="NN1_0" class="node">
<title>NN1_0</title>
<g id="a_NN1_0"><a xlink:title="2345.25kB">
<polygon fill="#f8f8f8" stroke="black" points="581,-641 531,-641 527,-637 527,-605 577,-605 581,-609 581,-641"/>
<polyline fill="none" stroke="black" points="577,-637 527,-637 "/>
<polyline fill="none" stroke="black" points="577,-637 577,-605 "/>
<polyline fill="none" stroke="black" points="577,-637 581,-641 "/>
<text text-anchor="middle" x="554" y="-621.1" font-family="Times,serif" font-size="8.00">2.27MB</text>
</a>
</g>
</g>
<!-- N1&#45;&gt;NN1_0 -->
<g id="edge1" class="edge">
<title>N1&#45;&gt;NN1_0</title>
<g id="a_edge1"><a xlink:title="2345.25kB">
<path fill="none" stroke="black" d="M554,-691.76C554,-678.29 554,-663.52 554,-651.22"/>
<polygon fill="black" stroke="black" points="557.5,-651.14 554,-641.14 550.5,-651.14 557.5,-651.14"/>
</a>
</g>
<g id="a_edge1&#45;label"><a xlink:title="2345.25kB">
<text text-anchor="middle" x="587" y="-662.8" font-family="Times,serif" font-size="14.00"> 2345.25kB</text>
</a>
</g>
</g>
<!-- N5 -->
<g id="node5" class="node">
<title>N5</title>
<g id="a_node5"><a xlink:title="main.dropstopwords (5120.66kB)">
<polygon fill="#edddd5" stroke="#b23a00" points="673,-568 575,-568 575,-532 673,-532 673,-568"/>
<text text-anchor="middle" x="624" y="-557.1" font-family="Times,serif" font-size="8.00">main</text>
<text text-anchor="middle" x="624" y="-548.1" font-family="Times,serif" font-size="8.00">dropstopwords</text>
<text text-anchor="middle" x="624" y="-539.1" font-family="Times,serif" font-size="8.00">0 of 5120.66kB (26.50%)</text>
</a>
</g>
</g>
<!-- N1&#45;&gt;N5 -->
<g id="edge13" class="edge">
<title>N1&#45;&gt;N5</title>
<g id="a_edge13"><a xlink:title="main.HipparchiaBagger &#45;&gt; main.dropstopwords (5120.66kB)">
<path fill="none" stroke="#b23a00" stroke-width="2" d="M609.18,-691.66C613.87,-686.24 617.98,-680.34 621,-674 635.47,-643.67 633.29,-604.16 629.46,-578.22"/>
<polygon fill="#b23a00" stroke="#b23a00" stroke-width="2" points="632.9,-577.62 627.82,-568.32 626,-578.76 632.9,-577.62"/>
</a>
</g>
<g id="a_edge13&#45;label"><a xlink:title="main.HipparchiaBagger &#45;&gt; main.dropstopwords (5120.66kB)">
<text text-anchor="middle" x="666" y="-619.3" font-family="Times,serif" font-size="14.00"> 5120.66kB</text>
</a>
</g>
</g>
<!-- N8 -->
<g id="node8" class="node">
<title>N8</title>
<g id="a_node8"><a xlink:title="main.splitonpunctuaton (11856kB)">
<polygon fill="#edd8d5" stroke="#b21800" points="783,-568 691,-568 691,-532 783,-532 783,-568"/>
<text text-anchor="middle" x="737" y="-557.1" font-family="Times,serif" font-size="8.00">main</text>
<text text-anchor="middle" x="737" y="-548.1" font-family="Times,serif" font-size="8.00">splitonpunctuaton</text>
<text text-anchor="middle" x="737" y="-539.1" font-family="Times,serif" font-size="8.00">0 of 11856kB (61.36%)</text>
</a>
</g>
</g>
<!-- N1&#45;&gt;N8 -->
<g id="edge10" class="edge">
<title>N1&#45;&gt;N8</title>
<g id="a_edge10"><a xlink:title="main.HipparchiaBagger &#45;&gt; main.splitonpunctuaton (11856kB)">
<path fill="none" stroke="#b21800" stroke-width="4" d="M636.04,-694.5C660.17,-680.57 684.92,-662.71 703,-641 718.06,-622.91 726.84,-597.47 731.69,-578.25"/>
<polygon fill="#b21800" stroke="#b21800" stroke-width="4" points="735.15,-578.83 734,-568.3 728.33,-577.25 735.15,-578.83"/>
</a>
</g>
<g id="a_edge10&#45;label"><a xlink:title="main.HipparchiaBagger &#45;&gt; main.splitonpunctuaton (11856kB)">
<text text-anchor="middle" x="750.5" y="-619.3" font-family="Times,serif" font-size="14.00"> 11856kB</text>
</a>
</g>
</g>
<!-- N2 -->
<g id="node2" class="node">
<title>N2</title>
<g id="a_node2"><a xlink:title="strings.(*genericReplacer).Replace (11856kB)">
<polygon fill="#edd8d5" stroke="#b21800" points="837,-353 637,-353 637,-241 837,-241 837,-353"/>
<text text-anchor="middle" x="737" y="-329.8" font-family="Times,serif" font-size="24.00">strings</text>
<text text-anchor="middle" x="737" y="-303.8" font-family="Times,serif" font-size="24.00">(*genericReplacer)</text>
<text text-anchor="middle" x="737" y="-277.8" font-family="Times,serif" font-size="24.00">Replace</text>
<text text-anchor="middle" x="737" y="-251.8" font-family="Times,serif" font-size="24.00">11856kB (61.36%)</text>
</a>
</g>
</g>
<!-- NN2_0 -->
<g id="NN2_0" class="node">
<title>NN2_0</title>
<g id="a_NN2_0"><a xlink:title="11856kB">
<polygon fill="#f8f8f8" stroke="black" points="764,-149 714,-149 710,-145 710,-113 760,-113 764,-117 764,-149"/>
<polyline fill="none" stroke="black" points="760,-145 710,-145 "/>
<polyline fill="none" stroke="black" points="760,-145 760,-113 "/>
<polyline fill="none" stroke="black" points="760,-145 764,-149 "/>
<text text-anchor="middle" x="737" y="-129.1" font-family="Times,serif" font-size="8.00">11.58MB</text>
</a>
</g>
</g>
<!-- N2&#45;&gt;NN2_0 -->
<g id="edge2" class="edge">
<title>N2&#45;&gt;NN2_0</title>
<g id="a_edge2"><a xlink:title="11856kB">
<path fill="none" stroke="black" d="M737,-240.93C737,-213.43 737,-181.37 737,-159.18"/>
<polygon fill="black" stroke="black" points="740.5,-159.15 737,-149.15 733.5,-159.15 740.5,-159.15"/>
</a>
</g>
<g id="a_edge2&#45;label"><a xlink:title="11856kB">
<text text-anchor="middle" x="764.5" y="-204.3" font-family="Times,serif" font-size="14.00"> 11856kB</text>
</a>
</g>
</g>
<!-- N3 -->
<g id="node3" class="node">
<title>N3</title>
<g id="a_node3"><a xlink:title="runtime.main (19321.91kB)">
<polygon fill="#edd5d5" stroke="#b20000" points="602,-986.5 506,-986.5 506,-950.5 602,-950.5 602,-986.5"/>
<text text-anchor="middle" x="554" y="-975.6" font-family="Times,serif" font-size="8.00">runtime</text>
<text text-anchor="middle" x="554" y="-966.6" font-family="Times,serif" font-size="8.00">main</text>
<text text-anchor="middle" x="554" y="-957.6" font-family="Times,serif" font-size="8.00">0 of 19321.91kB (100%)</text>
</a>
</g>
</g>
<!-- N7 -->
<g id="node7" class="node">
<title>N7</title>
<g id="a_node7"><a xlink:title="main.main (19321.91kB)">
<polygon fill="#edd5d5" stroke="#b20000" points="602,-859 506,-859 506,-823 602,-823 602,-859"/>
<text text-anchor="middle" x="554" y="-848.1" font-family="Times,serif" font-size="8.00">main</text>
<text text-anchor="middle" x="554" y="-839.1" font-family="Times,serif" font-size="8.00">main</text>
<text text-anchor="middle" x="554" y="-830.1" font-family="Times,serif" font-size="8.00">0 of 19321.91kB (100%)</text>
</a>
</g>
</g>
<!-- N3&#45;&gt;N7 -->
<g id="edge9" class="edge">
<title>N3&#45;&gt;N7</title>
<g id="a_edge9"><a xlink:title="runtime.main &#45;&gt; main.main (19321.91kB)">
<path fill="none" stroke="#b20000" stroke-width="6" d="M554,-950.31C554,-929.49 554,-894.16 554,-869.53"/>
<polygon fill="#b20000" stroke="#b20000" stroke-width="6" points="559.25,-869.38 554,-859.38 548.75,-869.38 559.25,-869.38"/>
</a>
</g>
<g id="a_edge9&#45;label"><a xlink:title="runtime.main &#45;&gt; main.main (19321.91kB)">
<text text-anchor="middle" x="590.5" y="-880.8" font-family="Times,serif" font-size="14.00"> 19321.91kB</text>
</a>
</g>
</g>
<!-- N4 -->
<g id="node4" class="node">
<title>N4</title>
<g id="a_node4"><a xlink:title="strings.(*Builder).grow (4608.59kB)">
<polygon fill="#edddd5" stroke="#b23e00" points="654,-175 486,-175 486,-87 654,-87 654,-175"/>
<text text-anchor="middle" x="570" y="-156.6" font-family="Times,serif" font-size="18.00">strings</text>
<text text-anchor="middle" x="570" y="-136.6" font-family="Times,serif" font-size="18.00">(*Builder)</text>
<text text-anchor="middle" x="570" y="-116.6" font-family="Times,serif" font-size="18.00">grow</text>
<text text-anchor="middle" x="570" y="-96.6" font-family="Times,serif" font-size="18.00">4608.59kB (23.85%)</text>
</a>
</g>
</g>
<!-- NN4_0 -->
<g id="NN4_0" class="node">
<title>NN4_0</title>
<g id="a_NN4_0"><a xlink:title="1536.27kB">
<polygon fill="#f8f8f8" stroke="black" points="464.5,-36 413.5,-36 409.5,-32 409.5,0 460.5,0 464.5,-4 464.5,-36"/>
<polyline fill="none" stroke="black" points="460.5,-32 409.5,-32 "/>
<polyline fill="none" stroke="black" points="460.5,-32 460.5,0 "/>
<polyline fill="none" stroke="black" points="460.5,-32 464.5,-36 "/>
<text text-anchor="middle" x="437" y="-16.1" font-family="Times,serif" font-size="8.00">160B..208B</text>
</a>
</g>
</g>
<!-- N4&#45;&gt;NN4_0 -->
<g id="edge3" class="edge">
<title>N4&#45;&gt;NN4_0</title>
<g id="a_edge3"><a xlink:title="1536.27kB">
<path fill="none" stroke="black" d="M485.74,-94.94C474.37,-87.6 463.66,-78.99 455,-69 449.39,-62.53 445.48,-54.18 442.78,-46.16"/>
<polygon fill="black" stroke="black" points="446.09,-45 439.96,-36.35 439.36,-46.93 446.09,-45"/>
</a>
</g>
<g id="a_edge3&#45;label"><a xlink:title="1536.27kB">
<text text-anchor="middle" x="488" y="-57.8" font-family="Times,serif" font-size="14.00"> 1536.27kB</text>
</a>
</g>
</g>
<!-- NN4_1 -->
<g id="NN4_1" class="node">
<title>NN4_1</title>
<g id="a_NN4_1"><a xlink:title="1536.15kB">
<polygon fill="#f8f8f8" stroke="black" points="553,-36 503,-36 499,-32 499,0 549,0 553,-4 553,-36"/>
<polyline fill="none" stroke="black" points="549,-32 499,-32 "/>
<polyline fill="none" stroke="black" points="549,-32 549,0 "/>
<polyline fill="none" stroke="black" points="549,-32 553,-36 "/>
<text text-anchor="middle" x="526" y="-16.1" font-family="Times,serif" font-size="8.00">96B..112B</text>
</a>
</g>
</g>
<!-- N4&#45;&gt;NN4_1 -->
<g id="edge4" class="edge">
<title>N4&#45;&gt;NN4_1</title>
<g id="a_edge4"><a xlink:title="1536.15kB">
<path fill="none" stroke="black" d="M535.01,-86.68C531.78,-80.99 528.98,-75.03 527,-69 524.65,-61.82 523.78,-53.75 523.65,-46.22"/>
<polygon fill="black" stroke="black" points="527.16,-46.16 523.9,-36.08 520.16,-45.99 527.16,-46.16"/>
</a>
</g>
<g id="a_edge4&#45;label"><a xlink:title="1536.15kB">
<text text-anchor="middle" x="560" y="-57.8" font-family="Times,serif" font-size="14.00"> 1536.15kB</text>
</a>
</g>
</g>
<!-- NN4_2 -->
<g id="NN4_2" class="node">
<title>NN4_2</title>
<g id="a_NN4_2"><a xlink:title="1024.05kB">
<polygon fill="#f8f8f8" stroke="black" points="642,-36 592,-36 588,-32 588,0 638,0 642,-4 642,-36"/>
<polyline fill="none" stroke="black" points="638,-32 588,-32 "/>
<polyline fill="none" stroke="black" points="638,-32 638,0 "/>
<polyline fill="none" stroke="black" points="638,-32 642,-36 "/>
<text text-anchor="middle" x="615" y="-16.1" font-family="Times,serif" font-size="8.00">48B</text>
</a>
</g>
</g>
<!-- N4&#45;&gt;NN4_2 -->
<g id="edge5" class="edge">
<title>N4&#45;&gt;NN4_2</title>
<g id="a_edge5"><a xlink:title="1024.05kB">
<path fill="none" stroke="black" d="M587.53,-86.77C593.12,-72.98 599.14,-58.12 604.12,-45.84"/>
<polygon fill="black" stroke="black" points="607.51,-46.8 608.02,-36.22 601.02,-44.17 607.51,-46.8"/>
</a>
</g>
<g id="a_edge5&#45;label"><a xlink:title="1024.05kB">
<text text-anchor="middle" x="634" y="-57.8" font-family="Times,serif" font-size="14.00"> 1024.05kB</text>
</a>
</g>
</g>
<!-- NN4_3 -->
<g id="NN4_3" class="node">
<title>NN4_3</title>
<g id="a_NN4_3"><a xlink:title="512.12kB">
<polygon fill="#f8f8f8" stroke="black" points="731,-36 681,-36 677,-32 677,0 727,0 731,-4 731,-36"/>
<polyline fill="none" stroke="black" points="727,-32 677,-32 "/>
<polyline fill="none" stroke="black" points="727,-32 727,0 "/>
<polyline fill="none" stroke="black" points="727,-32 731,-36 "/>
<text text-anchor="middle" x="704" y="-16.1" font-family="Times,serif" font-size="8.00">256B</text>
</a>
</g>
</g>
<!-- N4&#45;&gt;NN4_3 -->
<g id="edge6" class="edge">
<title>N4&#45;&gt;NN4_3</title>
<g id="a_edge6"><a xlink:title="512.12kB">
<path fill="none" stroke="black" d="M649.45,-86.82C657.09,-81.28 664.43,-75.32 671,-69 678.27,-62.01 684.77,-53.15 690.03,-44.83"/>
<polygon fill="black" stroke="black" points="693.11,-46.51 695.24,-36.13 687.1,-42.91 693.11,-46.51"/>
</a>
</g>
<g id="a_edge6&#45;label"><a xlink:title="512.12kB">
<text text-anchor="middle" x="713.5" y="-57.8" font-family="Times,serif" font-size="14.00"> 512.12kB</text>
</a>
</g>
</g>
<!-- N6 -->
<g id="node6" class="node">
<title>N6</title>
<g id="a_node6"><a xlink:title="main.stopworddropper (512.06kB)">
<polygon fill="#edecea" stroke="#b2aa9a" points="528.5,-466 423.5,-466 423.5,-419 528.5,-419 528.5,-466"/>
<text text-anchor="middle" x="476" y="-452.4" font-family="Times,serif" font-size="12.00">main</text>
<text text-anchor="middle" x="476" y="-439.4" font-family="Times,serif" font-size="12.00">stopworddropper</text>
<text text-anchor="middle" x="476" y="-426.4" font-family="Times,serif" font-size="12.00">512.06kB (2.65%)</text>
</a>
</g>
</g>
<!-- N5&#45;&gt;N6 -->
<g id="edge17" class="edge">
<title>N5&#45;&gt;N6</title>
<g id="a_edge17"><a xlink:title="main.dropstopwords &#45;&gt; main.stopworddropper (512.06kB)">
<path fill="none" stroke="#b2aa9a" d="M584.19,-531.84C573.71,-526.67 562.64,-520.59 553,-514 535.83,-502.26 518.58,-486.88 504.78,-473.48"/>
<polygon fill="#b2aa9a" stroke="#b2aa9a" points="507.06,-470.82 497.48,-466.28 502.14,-475.8 507.06,-470.82"/>
</a>
</g>
<g id="a_edge17&#45;label"><a xlink:title="main.dropstopwords &#45;&gt; main.stopworddropper (512.06kB)">
<text text-anchor="middle" x="582.5" y="-502.8" font-family="Times,serif" font-size="14.00"> 512.06kB</text>
<text text-anchor="middle" x="582.5" y="-487.8" font-family="Times,serif" font-size="14.00"> (inline)</text>
</a>
</g>
</g>
<!-- N11 -->
<g id="node11" class="node">
<title>N11</title>
<g id="a_node11"><a xlink:title="strings.Join (4608.59kB)">
<polygon fill="#edddd5" stroke="#b23e00" points="659,-460.5 561,-460.5 561,-424.5 659,-424.5 659,-460.5"/>
<text text-anchor="middle" x="610" y="-449.6" font-family="Times,serif" font-size="8.00">strings</text>
<text text-anchor="middle" x="610" y="-440.6" font-family="Times,serif" font-size="8.00">Join</text>
<text text-anchor="middle" x="610" y="-431.6" font-family="Times,serif" font-size="8.00">0 of 4608.59kB (23.85%)</text>
</a>
</g>
</g>
<!-- N5&#45;&gt;N11 -->
<g id="edge14" class="edge">
<title>N5&#45;&gt;N11</title>
<g id="a_edge14"><a xlink:title="main.dropstopwords &#45;&gt; strings.Join (4608.59kB)">
<path fill="none" stroke="#b23e00" stroke-width="2" d="M621.69,-531.58C619.49,-514.99 616.14,-489.76 613.59,-470.56"/>
<polygon fill="#b23e00" stroke="#b23e00" stroke-width="2" points="617.05,-470.05 612.27,-460.6 610.11,-470.97 617.05,-470.05"/>
</a>
</g>
<g id="a_edge14&#45;label"><a xlink:title="main.dropstopwords &#45;&gt; strings.Join (4608.59kB)">
<text text-anchor="middle" x="653" y="-495.3" font-family="Times,serif" font-size="14.00"> 4608.59kB</text>
</a>
</g>
</g>
<!-- NN6_0 -->
<g id="NN6_0" class="node">
<title>NN6_0</title>
<g id="a_NN6_0"><a xlink:title="512.06kB">
<polygon fill="#f8f8f8" stroke="black" points="503,-315 453,-315 449,-311 449,-279 499,-279 503,-283 503,-315"/>
<polyline fill="none" stroke="black" points="499,-311 449,-311 "/>
<polyline fill="none" stroke="black" points="499,-311 499,-279 "/>
<polyline fill="none" stroke="black" points="499,-311 503,-315 "/>
<text text-anchor="middle" x="476" y="-295.1" font-family="Times,serif" font-size="8.00">128B</text>
</a>
</g>
</g>
<!-- N6&#45;&gt;NN6_0 -->
<g id="edge7" class="edge">
<title>N6&#45;&gt;NN6_0</title>
<g id="a_edge7"><a xlink:title="512.06kB">
<path fill="none" stroke="black" d="M476,-418.76C476,-393.48 476,-352.64 476,-325.56"/>
<polygon fill="black" stroke="black" points="479.5,-325.23 476,-315.23 472.5,-325.23 479.5,-325.23"/>
</a>
</g>
<g id="a_edge7&#45;label"><a xlink:title="512.06kB">
<text text-anchor="middle" x="505.5" y="-382.3" font-family="Times,serif" font-size="14.00"> 512.06kB</text>
</a>
</g>
</g>
<!-- N7&#45;&gt;N1 -->
<g id="edge8" class="edge">
<title>N7&#45;&gt;N1</title>
<g id="a_edge8"><a xlink:title="main.main &#45;&gt; main.HipparchiaBagger (19321.91kB)">
<path fill="none" stroke="#b20000" stroke-width="6" d="M554,-822.81C554,-811.88 554,-797.11 554,-782.71"/>
<polygon fill="#b20000" stroke="#b20000" stroke-width="6" points="559.25,-782.36 554,-772.36 548.75,-782.36 559.25,-782.36"/>
</a>
</g>
<g id="a_edge8&#45;label"><a xlink:title="main.main &#45;&gt; main.HipparchiaBagger (19321.91kB)">
<text text-anchor="middle" x="590.5" y="-793.8" font-family="Times,serif" font-size="14.00"> 19321.91kB</text>
</a>
</g>
</g>
<!-- N10 -->
<g id="node10" class="node">
<title>N10</title>
<g id="a_node10"><a xlink:title="strings.(*Replacer).Replace (11856kB)">
<polygon fill="#edd8d5" stroke="#b21800" points="783,-464.5 691,-464.5 691,-420.5 783,-420.5 783,-464.5"/>
<text text-anchor="middle" x="737" y="-454.1" font-family="Times,serif" font-size="8.00">strings</text>
<text text-anchor="middle" x="737" y="-445.1" font-family="Times,serif" font-size="8.00">(*Replacer)</text>
<text text-anchor="middle" x="737" y="-436.1" font-family="Times,serif" font-size="8.00">Replace</text>
<text text-anchor="middle" x="737" y="-427.1" font-family="Times,serif" font-size="8.00">0 of 11856kB (61.36%)</text>
</a>
</g>
</g>
<!-- N8&#45;&gt;N10 -->
<g id="edge11" class="edge">
<title>N8&#45;&gt;N10</title>
<g id="a_edge11"><a xlink:title="main.splitonpunctuaton &#45;&gt; strings.(*Replacer).Replace (11856kB)">
<path fill="none" stroke="#b21800" stroke-width="4" d="M737,-531.58C737,-516.15 737,-493.24 737,-474.66"/>
<polygon fill="#b21800" stroke="#b21800" stroke-width="4" points="740.5,-474.58 737,-464.58 733.5,-474.58 740.5,-474.58"/>
</a>
</g>
<g id="a_edge11&#45;label"><a xlink:title="main.splitonpunctuaton &#45;&gt; strings.(*Replacer).Replace (11856kB)">
<text text-anchor="middle" x="764.5" y="-495.3" font-family="Times,serif" font-size="14.00"> 11856kB</text>
</a>
</g>
</g>
<!-- N9 -->
<g id="node9" class="node">
<title>N9</title>
<g id="a_node9"><a xlink:title="strings.(*Builder).Grow (4608.59kB)">
<polygon fill="#edddd5" stroke="#b23e00" points="619,-319 521,-319 521,-275 619,-275 619,-319"/>
<text text-anchor="middle" x="570" y="-308.6" font-family="Times,serif" font-size="8.00">strings</text>
<text text-anchor="middle" x="570" y="-299.6" font-family="Times,serif" font-size="8.00">(*Builder)</text>
<text text-anchor="middle" x="570" y="-290.6" font-family="Times,serif" font-size="8.00">Grow</text>
<text text-anchor="middle" x="570" y="-281.6" font-family="Times,serif" font-size="8.00">0 of 4608.59kB (23.85%)</text>
</a>
</g>
</g>
<!-- N9&#45;&gt;N4 -->
<g id="edge15" class="edge">
<title>N9&#45;&gt;N4</title>
<g id="a_edge15"><a xlink:title="strings.(*Builder).Grow &#45;&gt; strings.(*Builder).grow (4608.59kB)">
<path fill="none" stroke="#b23e00" stroke-width="2" d="M570,-274.9C570,-252.36 570,-215.75 570,-185.23"/>
<polygon fill="#b23e00" stroke="#b23e00" stroke-width="2" points="573.5,-185.15 570,-175.15 566.5,-185.15 573.5,-185.15"/>
</a>
</g>
<g id="a_edge15&#45;label"><a xlink:title="strings.(*Builder).Grow &#45;&gt; strings.(*Builder).grow (4608.59kB)">
<text text-anchor="middle" x="603" y="-211.8" font-family="Times,serif" font-size="14.00"> 4608.59kB</text>
<text text-anchor="middle" x="603" y="-196.8" font-family="Times,serif" font-size="14.00"> (inline)</text>
</a>
</g>
</g>
<!-- N10&#45;&gt;N2 -->
<g id="edge12" class="edge">
<title>N10&#45;&gt;N2</title>
<g id="a_edge12"><a xlink:title="strings.(*Replacer).Replace &#45;&gt; strings.(*genericReplacer).Replace (11856kB)">
<path fill="none" stroke="#b21800" stroke-width="4" d="M737,-420.33C737,-405.12 737,-383.74 737,-363.1"/>
<polygon fill="#b21800" stroke="#b21800" stroke-width="4" points="740.5,-363.06 737,-353.06 733.5,-363.06 740.5,-363.06"/>
</a>
</g>
<g id="a_edge12&#45;label"><a xlink:title="strings.(*Replacer).Replace &#45;&gt; strings.(*genericReplacer).Replace (11856kB)">
<text text-anchor="middle" x="764.5" y="-382.3" font-family="Times,serif" font-size="14.00"> 11856kB</text>
</a>
</g>
</g>
<!-- N11&#45;&gt;N9 -->
<g id="edge16" class="edge">
<title>N11&#45;&gt;N9</title>
<g id="a_edge16"><a xlink:title="strings.Join &#45;&gt; strings.(*Builder).Grow (4608.59kB)">
<path fill="none" stroke="#b23e00" stroke-width="2" d="M605.25,-424.48C598.7,-400.97 586.77,-358.16 578.62,-328.91"/>
<polygon fill="#b23e00" stroke="#b23e00" stroke-width="2" points="581.96,-327.88 575.91,-319.19 575.22,-329.76 581.96,-327.88"/>
</a>
</g>
<g id="a_edge16&#45;label"><a xlink:title="strings.Join &#45;&gt; strings.(*Builder).Grow (4608.59kB)">
<text text-anchor="middle" x="632" y="-389.8" font-family="Times,serif" font-size="14.00"> 4608.59kB</text>
<text text-anchor="middle" x="632" y="-374.8" font-family="Times,serif" font-size="14.00"> (inline)</text>
</a>
</g>
</g>
</g>
</g></svg>
